<svg width="201" height="200" viewBox="0 0 201 200" fill="none" xmlns="http://www.w3.org/2000/svg">
<path d="M137.523 75C137.523 84.9456 133.572 94.4839 126.539 101.517C119.507 108.549 109.968 112.5 100.023 112.5C90.0771 112.5 80.5388 108.549 73.5062 101.517C66.4736 94.4839 62.5227 84.9456 62.5227 75C62.5227 65.0544 66.4736 55.5161 73.5062 48.4835C80.5388 41.4509 90.0771 37.5 100.023 37.5C109.968 37.5 119.507 41.4509 126.539 48.4835C133.572 55.5161 137.523 65.0544 137.523 75V75Z" fill="#828282"/>
<path fill-rule="evenodd" clip-rule="evenodd" d="M0.0227051 100C0.0227051 73.4784 10.5584 48.043 29.312 29.2893C48.0657 10.5357 73.5011 0 100.023 0C126.544 0 151.98 10.5357 170.733 29.2893C189.487 48.043 200.023 73.4784 200.023 100C200.023 126.522 189.487 151.957 170.733 170.711C151.98 189.464 126.544 200 100.023 200C73.5011 200 48.0657 189.464 29.312 170.711C10.5584 151.957 0.0227051 126.522 0.0227051 100V100ZM100.023 12.5C83.5449 12.5009 67.4023 17.1545 53.4527 25.9253C39.5032 34.6962 28.3137 47.2276 21.1723 62.0774C14.0308 76.9272 11.2275 93.4917 13.0852 109.864C14.9428 126.237 21.3859 141.753 31.6727 154.625C40.5477 140.325 60.0852 125 100.023 125C139.96 125 159.485 140.312 168.373 154.625C178.66 141.753 185.103 126.237 186.96 109.864C188.818 93.4917 186.015 76.9272 178.873 62.0774C171.732 47.2276 160.542 34.6962 146.593 25.9253C132.643 17.1545 116.5 12.5009 100.023 12.5V12.5Z" fill="#828282"/>
</svg>
