<svg width="201" height="201" viewBox="0 0 201 201" fill="none" xmlns="http://www.w3.org/2000/svg">
<path d="M137.523 75.667C137.523 85.6126 133.572 95.1509 126.539 102.184C119.507 109.216 109.968 113.167 100.023 113.167C90.0771 113.167 80.5388 109.216 73.5062 102.184C66.4736 95.1509 62.5227 85.6126 62.5227 75.667C62.5227 65.7214 66.4736 56.1831 73.5062 49.1505C80.5388 42.1179 90.0771 38.167 100.023 38.167C109.968 38.167 119.507 42.1179 126.539 49.1505C133.572 56.1831 137.523 65.7214 137.523 75.667V75.667Z" fill="#FCB629"/>
<path fill-rule="evenodd" clip-rule="evenodd" d="M0.0227051 100.667C0.0227051 74.1453 10.5584 48.71 29.312 29.9563C48.0657 11.2027 73.5011 0.666992 100.023 0.666992C126.544 0.666992 151.98 11.2027 170.733 29.9563C189.487 48.71 200.023 74.1453 200.023 100.667C200.023 127.189 189.487 152.624 170.733 171.378C151.98 190.131 126.544 200.667 100.023 200.667C73.5011 200.667 48.0657 190.131 29.312 171.378C10.5584 152.624 0.0227051 127.189 0.0227051 100.667V100.667ZM100.023 13.167C83.5449 13.1679 67.4023 17.8215 53.4527 26.5923C39.5032 35.3632 28.3137 47.8946 21.1723 62.7444C14.0308 77.5942 11.2275 94.1587 13.0852 110.531C14.9428 126.904 21.3859 142.42 31.6727 155.292C40.5477 140.992 60.0852 125.667 100.023 125.667C139.96 125.667 159.485 140.979 168.373 155.292C178.66 142.42 185.103 126.904 186.96 110.531C188.818 94.1587 186.015 77.5942 178.873 62.7444C171.732 47.8946 160.542 35.3632 146.593 26.5923C132.643 17.8215 116.5 13.1679 100.023 13.167V13.167Z" fill="#FCB629"/>
</svg>
