<svg width="201" height="192" viewBox="0 0 201 192" fill="none" xmlns="http://www.w3.org/2000/svg">
<path d="M70.622 191.807C79.6347 191.807 86.9408 184.5 86.9408 175.488C86.9408 166.475 79.6347 159.169 70.622 159.169C61.6094 159.169 54.3032 166.475 54.3032 175.488C54.3032 184.5 61.6094 191.807 70.622 191.807Z" fill="#828282"/>
<path d="M155.479 191.807C164.492 191.807 171.798 184.5 171.798 175.488C171.798 166.475 164.492 159.169 155.479 159.169C146.466 159.169 139.16 166.475 139.16 175.488C139.16 184.5 146.466 191.807 155.479 191.807Z" fill="#828282"/>
<path d="M198.562 24.6364C197.954 23.8464 197.173 23.2063 196.279 22.765C195.385 22.3237 194.402 22.093 193.405 22.0906H42.619L39.6817 12.7563C39.359 11.754 38.7987 10.8447 38.0485 10.1059C37.2983 9.36709 36.3806 8.82071 35.3735 8.51339L8.61064 0.288704C7.78772 0.0358276 6.92305 -0.0524875 6.066 0.0288028C5.20896 0.110093 4.37631 0.359396 3.61561 0.762477C2.0793 1.57654 0.929301 2.96755 0.418595 4.62951C-0.0921115 6.29147 0.0783106 8.08823 0.892369 9.62454C1.70643 11.1608 3.09744 12.3108 4.7594 12.8216L28.1932 20.0018L58.0893 114.455L47.4494 123.202L46.6008 124.051C43.9696 127.097 42.4788 130.964 42.3836 134.988C42.2883 139.013 43.5945 142.946 46.0786 146.114C47.8578 148.277 50.1186 149.994 52.6802 151.128C55.2418 152.261 58.0331 152.78 60.8308 152.641H169.775C171.506 152.641 173.167 151.953 174.391 150.729C175.615 149.505 176.303 147.845 176.303 146.114C176.303 144.382 175.615 142.722 174.391 141.498C173.167 140.274 171.506 139.586 169.775 139.586H59.7864C59.0348 139.56 58.3024 139.341 57.6602 138.95C57.0179 138.559 56.4874 138.008 56.1199 137.352C55.7524 136.696 55.5604 135.956 55.5623 135.204C55.5643 134.452 55.7601 133.713 56.131 133.059L71.8624 120.004H172.582C174.073 120.047 175.534 119.578 176.722 118.676C177.91 117.773 178.752 116.491 179.11 115.043L199.998 30.1848C200.196 29.2116 200.17 28.206 199.921 27.2445C199.672 26.283 199.207 25.391 198.562 24.6364V24.6364Z" fill="#828282"/>
</svg>
